# xmcd
#
# Track frame offsets:
#	150
#	10297
#	26770
#	45584
#	65244
#	87841
#	127612
#	152026
#	173424
#	192360
#	213504
#	225338
#	252257
#
# Disc length: 3552 seconds
#
# Revision: 1
# Processed by: cddbd v1.5.2PL0 Copyright (c) Steve Scherf et al.
# Submitted via: audiograbber 1.83.01
#
DISCID=a00dde0d
DTITLE=ICF Zürich - All The World
DYEAR=2010
DGENRE=Worship
TTITLE0=Praise
TTITLE1=Best Thing Ever
TTITLE2=Show Me Heaven
TTITLE3=Whiter Than Snow
TTITLE4=All The World
TTITLE5=Song Of Hope
TTITLE6=Almighty
TTITLE7=In The Power Of Your Name
TTITLE8=Surrounding Me
TTITLE9=I Love You My God
TTITLE10=Come God
TTITLE11=Your Love Endures Forever
TTITLE12=Like I Always Do
EXTD=
EXTT0=
EXTT1=
EXTT2=
EXTT3=
EXTT4=
EXTT5=
EXTT6=
EXTT7=
EXTT8=
EXTT9=
EXTT10=
EXTT11=
EXTT12=
PLAYORDER=
